<svg xmlns="http://www.w3.org/2000/svg" width="178" height="133.5" viewBox="0 0 178 133.5"><defs><style>.a{fill:#d2fced;}</style></defs><g transform="translate(-1066 -641.25)"><path class="a" d="M5.394,0A5.394,5.394,0,1,1,0,5.394,5.394,5.394,0,0,1,5.394,0Z" transform="translate(1066 641.25)"/><path class="a" d="M5.394,0A5.394,5.394,0,1,1,0,5.394,5.394,5.394,0,0,1,5.394,0Z" transform="translate(1086.901 641.25)"/><path class="a" d="M5.394,0A5.394,5.394,0,1,1,0,5.394,5.394,5.394,0,0,1,5.394,0Z" transform="translate(1107.803 641.25)"/><path class="a" d="M5.394,0A5.394,5.394,0,1,1,0,5.394,5.394,5.394,0,0,1,5.394,0Z" transform="translate(1128.705 641.25)"/><path class="a" d="M5.394,0A5.394,5.394,0,1,1,0,5.394,5.394,5.394,0,0,1,5.394,0Z" transform="translate(1149.606 641.25)"/><path class="a" d="M5.394,0A5.394,5.394,0,1,1,0,5.394,5.394,5.394,0,0,1,5.394,0Z" transform="translate(1170.508 641.25)"/><path class="a" d="M5.394,0A5.394,5.394,0,1,1,0,5.394,5.394,5.394,0,0,1,5.394,0Z" transform="translate(1191.409 641.25)"/><path class="a" d="M5.394,0A5.394,5.394,0,1,1,0,5.394,5.394,5.394,0,0,1,5.394,0Z" transform="translate(1212.311 641.25)"/><path class="a" d="M5.394,0A5.394,5.394,0,1,1,0,5.394,5.394,5.394,0,0,1,5.394,0Z" transform="translate(1233.212 641.25)"/><path class="a" d="M5.394,0A5.394,5.394,0,1,1,0,5.394,5.394,5.394,0,0,1,5.394,0Z" transform="translate(1066 658.78)"/><path class="a" d="M5.394,0A5.394,5.394,0,1,1,0,5.394,5.394,5.394,0,0,1,5.394,0Z" transform="translate(1086.901 658.78)"/><path class="a" d="M5.394,0A5.394,5.394,0,1,1,0,5.394,5.394,5.394,0,0,1,5.394,0Z" transform="translate(1107.803 658.78)"/><path class="a" d="M5.394,0A5.394,5.394,0,1,1,0,5.394,5.394,5.394,0,0,1,5.394,0Z" transform="translate(1128.705 658.78)"/><path class="a" d="M5.394,0A5.394,5.394,0,1,1,0,5.394,5.394,5.394,0,0,1,5.394,0Z" transform="translate(1149.606 658.78)"/><path class="a" d="M5.394,0A5.394,5.394,0,1,1,0,5.394,5.394,5.394,0,0,1,5.394,0Z" transform="translate(1170.508 658.78)"/><path class="a" d="M5.394,0A5.394,5.394,0,1,1,0,5.394,5.394,5.394,0,0,1,5.394,0Z" transform="translate(1191.409 658.78)"/><path class="a" d="M5.394,0A5.394,5.394,0,1,1,0,5.394,5.394,5.394,0,0,1,5.394,0Z" transform="translate(1212.311 658.78)"/><path class="a" d="M5.394,0A5.394,5.394,0,1,1,0,5.394,5.394,5.394,0,0,1,5.394,0Z" transform="translate(1233.212 658.78)"/><path class="a" d="M5.394,0A5.394,5.394,0,1,1,0,5.394,5.394,5.394,0,0,1,5.394,0Z" transform="translate(1066 676.311)"/><path class="a" d="M5.394,0A5.394,5.394,0,1,1,0,5.394,5.394,5.394,0,0,1,5.394,0Z" transform="translate(1086.901 676.311)"/><path class="a" d="M5.394,0A5.394,5.394,0,1,1,0,5.394,5.394,5.394,0,0,1,5.394,0Z" transform="translate(1107.803 676.311)"/><path class="a" d="M5.394,0A5.394,5.394,0,1,1,0,5.394,5.394,5.394,0,0,1,5.394,0Z" transform="translate(1128.705 676.311)"/><path class="a" d="M5.394,0A5.394,5.394,0,1,1,0,5.394,5.394,5.394,0,0,1,5.394,0Z" transform="translate(1149.606 676.311)"/><path class="a" d="M5.394,0A5.394,5.394,0,1,1,0,5.394,5.394,5.394,0,0,1,5.394,0Z" transform="translate(1170.508 676.311)"/><path class="a" d="M5.394,0A5.394,5.394,0,1,1,0,5.394,5.394,5.394,0,0,1,5.394,0Z" transform="translate(1191.409 676.311)"/><path class="a" d="M5.394,0A5.394,5.394,0,1,1,0,5.394,5.394,5.394,0,0,1,5.394,0Z" transform="translate(1212.311 676.311)"/><path class="a" d="M5.394,0A5.394,5.394,0,1,1,0,5.394,5.394,5.394,0,0,1,5.394,0Z" transform="translate(1233.212 676.311)"/><path class="a" d="M5.394,0A5.394,5.394,0,1,1,0,5.394,5.394,5.394,0,0,1,5.394,0Z" transform="translate(1066 693.841)"/><path class="a" d="M5.394,0A5.394,5.394,0,1,1,0,5.394,5.394,5.394,0,0,1,5.394,0Z" transform="translate(1086.901 693.841)"/><path class="a" d="M5.394,0A5.394,5.394,0,1,1,0,5.394,5.394,5.394,0,0,1,5.394,0Z" transform="translate(1107.803 693.841)"/><path class="a" d="M5.394,0A5.394,5.394,0,1,1,0,5.394,5.394,5.394,0,0,1,5.394,0Z" transform="translate(1128.705 693.841)"/><path class="a" d="M5.394,0A5.394,5.394,0,1,1,0,5.394,5.394,5.394,0,0,1,5.394,0Z" transform="translate(1149.606 693.841)"/><path class="a" d="M5.394,0A5.394,5.394,0,1,1,0,5.394,5.394,5.394,0,0,1,5.394,0Z" transform="translate(1170.508 693.841)"/><path class="a" d="M5.394,0A5.394,5.394,0,1,1,0,5.394,5.394,5.394,0,0,1,5.394,0Z" transform="translate(1191.409 693.841)"/><path class="a" d="M5.394,0A5.394,5.394,0,1,1,0,5.394,5.394,5.394,0,0,1,5.394,0Z" transform="translate(1212.311 693.841)"/><path class="a" d="M5.394,0A5.394,5.394,0,1,1,0,5.394,5.394,5.394,0,0,1,5.394,0Z" transform="translate(1233.212 693.841)"/><path class="a" d="M5.394,0A5.394,5.394,0,1,1,0,5.394,5.394,5.394,0,0,1,5.394,0Z" transform="translate(1066 711.371)"/><path class="a" d="M5.394,0A5.394,5.394,0,1,1,0,5.394,5.394,5.394,0,0,1,5.394,0Z" transform="translate(1086.901 711.371)"/><path class="a" d="M5.394,0A5.394,5.394,0,1,1,0,5.394,5.394,5.394,0,0,1,5.394,0Z" transform="translate(1107.803 711.371)"/><path class="a" d="M5.394,0A5.394,5.394,0,1,1,0,5.394,5.394,5.394,0,0,1,5.394,0Z" transform="translate(1128.705 711.371)"/><path class="a" d="M5.394,0A5.394,5.394,0,1,1,0,5.394,5.394,5.394,0,0,1,5.394,0Z" transform="translate(1149.606 711.371)"/><path class="a" d="M5.394,0A5.394,5.394,0,1,1,0,5.394,5.394,5.394,0,0,1,5.394,0Z" transform="translate(1170.508 711.371)"/><path class="a" d="M5.394,0A5.394,5.394,0,1,1,0,5.394,5.394,5.394,0,0,1,5.394,0Z" transform="translate(1191.409 711.371)"/><path class="a" d="M5.394,0A5.394,5.394,0,1,1,0,5.394,5.394,5.394,0,0,1,5.394,0Z" transform="translate(1212.311 711.371)"/><path class="a" d="M5.394,0A5.394,5.394,0,1,1,0,5.394,5.394,5.394,0,0,1,5.394,0Z" transform="translate(1233.212 711.371)"/><path class="a" d="M5.394,0A5.394,5.394,0,1,1,0,5.394,5.394,5.394,0,0,1,5.394,0Z" transform="translate(1066 728.901)"/><path class="a" d="M5.394,0A5.394,5.394,0,1,1,0,5.394,5.394,5.394,0,0,1,5.394,0Z" transform="translate(1086.901 728.901)"/><path class="a" d="M5.394,0A5.394,5.394,0,1,1,0,5.394,5.394,5.394,0,0,1,5.394,0Z" transform="translate(1107.803 728.901)"/><path class="a" d="M5.394,0A5.394,5.394,0,1,1,0,5.394,5.394,5.394,0,0,1,5.394,0Z" transform="translate(1128.705 728.901)"/><path class="a" d="M5.394,0A5.394,5.394,0,1,1,0,5.394,5.394,5.394,0,0,1,5.394,0Z" transform="translate(1149.606 728.901)"/><path class="a" d="M5.394,0A5.394,5.394,0,1,1,0,5.394,5.394,5.394,0,0,1,5.394,0Z" transform="translate(1170.508 728.901)"/><path class="a" d="M5.394,0A5.394,5.394,0,1,1,0,5.394,5.394,5.394,0,0,1,5.394,0Z" transform="translate(1191.409 728.901)"/><path class="a" d="M5.394,0A5.394,5.394,0,1,1,0,5.394,5.394,5.394,0,0,1,5.394,0Z" transform="translate(1212.311 728.901)"/><path class="a" d="M5.394,0A5.394,5.394,0,1,1,0,5.394,5.394,5.394,0,0,1,5.394,0Z" transform="translate(1233.212 728.901)"/><path class="a" d="M5.394,0A5.394,5.394,0,1,1,0,5.394,5.394,5.394,0,0,1,5.394,0Z" transform="translate(1066 746.432)"/><path class="a" d="M5.394,0A5.394,5.394,0,1,1,0,5.394,5.394,5.394,0,0,1,5.394,0Z" transform="translate(1086.901 746.432)"/><path class="a" d="M5.394,0A5.394,5.394,0,1,1,0,5.394,5.394,5.394,0,0,1,5.394,0Z" transform="translate(1107.803 746.432)"/><path class="a" d="M5.394,0A5.394,5.394,0,1,1,0,5.394,5.394,5.394,0,0,1,5.394,0Z" transform="translate(1128.705 746.432)"/><path class="a" d="M5.394,0A5.394,5.394,0,1,1,0,5.394,5.394,5.394,0,0,1,5.394,0Z" transform="translate(1149.606 746.432)"/><path class="a" d="M5.394,0A5.394,5.394,0,1,1,0,5.394,5.394,5.394,0,0,1,5.394,0Z" transform="translate(1170.508 746.432)"/><path class="a" d="M5.394,0A5.394,5.394,0,1,1,0,5.394,5.394,5.394,0,0,1,5.394,0Z" transform="translate(1191.409 746.432)"/><path class="a" d="M5.394,0A5.394,5.394,0,1,1,0,5.394,5.394,5.394,0,0,1,5.394,0Z" transform="translate(1212.311 746.432)"/><path class="a" d="M5.394,0A5.394,5.394,0,1,1,0,5.394,5.394,5.394,0,0,1,5.394,0Z" transform="translate(1233.212 746.432)"/><path class="a" d="M5.394,0A5.394,5.394,0,1,1,0,5.394,5.394,5.394,0,0,1,5.394,0Z" transform="translate(1066 763.962)"/><path class="a" d="M5.394,0A5.394,5.394,0,1,1,0,5.394,5.394,5.394,0,0,1,5.394,0Z" transform="translate(1086.901 763.962)"/><path class="a" d="M5.394,0A5.394,5.394,0,1,1,0,5.394,5.394,5.394,0,0,1,5.394,0Z" transform="translate(1107.803 763.962)"/><path class="a" d="M5.394,0A5.394,5.394,0,1,1,0,5.394,5.394,5.394,0,0,1,5.394,0Z" transform="translate(1128.705 763.962)"/><path class="a" d="M5.394,0A5.394,5.394,0,1,1,0,5.394,5.394,5.394,0,0,1,5.394,0Z" transform="translate(1149.606 763.962)"/><path class="a" d="M5.394,0A5.394,5.394,0,1,1,0,5.394,5.394,5.394,0,0,1,5.394,0Z" transform="translate(1170.508 763.962)"/><path class="a" d="M5.394,0A5.394,5.394,0,1,1,0,5.394,5.394,5.394,0,0,1,5.394,0Z" transform="translate(1191.409 763.962)"/><path class="a" d="M5.394,0A5.394,5.394,0,1,1,0,5.394,5.394,5.394,0,0,1,5.394,0Z" transform="translate(1212.311 763.962)"/><path class="a" d="M5.394,0A5.394,5.394,0,1,1,0,5.394,5.394,5.394,0,0,1,5.394,0Z" transform="translate(1233.212 763.962)"/></g></svg>